<?xml version="1.0" encoding="UTF-8"?>
<svg id="_레이어_1" data-name="레이어 1" xmlns="http://www.w3.org/2000/svg" xmlns:xlink="http://www.w3.org/1999/xlink" viewBox="0 0 928.68 206.61">
  <defs>
    <style>
      .cls-1 {
        fill: #231815;
      }

      .cls-2 {
        fill: url(#_무제_그라디언트_3);
      }
    </style>
    <linearGradient id="_무제_그라디언트_3" data-name="무제 그라디언트 3" x1="675.34" y1="296.71" x2="675.34" y2="-84.08" gradientUnits="userSpaceOnUse">
      <stop offset="0" stop-color="#c0dced"/>
      <stop offset="1" stop-color="#066186"/>
    </linearGradient>
  </defs>
  <g>
    <path class="cls-1" d="M25.57,151.36c-7.99-4.48-14.25-10.71-18.78-18.71-4.53-7.99-6.79-16.99-6.79-27.01s2.29-19.02,6.86-27.01c4.57-7.99,10.86-14.23,18.85-18.71,7.99-4.48,16.95-6.72,26.87-6.72,8.57,0,16.32,1.59,23.26,4.77,6.93,3.18,12.71,7.8,17.33,13.87l-16.18,15.6c-6.26-7.89-13.96-11.84-23.11-11.84-5.49,0-10.38,1.25-14.66,3.75-4.29,2.51-7.63,6.04-10.04,10.62-2.41,4.57-3.61,9.8-3.61,15.67s1.2,11.1,3.61,15.67c2.41,4.58,5.75,8.11,10.04,10.62,4.28,2.5,9.17,3.76,14.66,3.76,9.34,0,17.04-4,23.11-11.99l16.18,15.6c-4.62,6.07-10.4,10.71-17.33,13.94-6.93,3.22-14.73,4.84-23.4,4.84-9.92,0-18.88-2.24-26.87-6.72Z"/>
    <path class="cls-1" d="M192.54,156.2h-25.13v-40.3h-39.72v40.3h-25.13V55.09h25.13v38.57h39.72v-38.57h25.13v101.11Z"/>
    <path class="cls-1" d="M234.58,55.09v101.11h-25.13V55.09h25.13Z"/>
    <path class="cls-1" d="M276.18,55.09v79.73h46.8v21.38h-71.93V55.09h25.13Z"/>
    <path class="cls-1" d="M355.33,55.09v79.73h46.8v21.38h-71.93V55.09h25.13Z"/>
  </g>
  <path class="cls-2" d="M422,0h96v28.17h-69.82v150.26h69.82v28.17h-96V0ZM832.68,0v28.17h69.82v150.26h-69.82v28.17h96V0h-96Z"/>
  <g>
    <path class="cls-1" d="M495.57,151.36c-7.99-4.48-14.25-10.71-18.78-18.71-4.53-7.99-6.79-16.99-6.79-27.01s2.29-19.02,6.86-27.01c4.57-7.99,10.86-14.23,18.85-18.71,7.99-4.48,16.95-6.72,26.87-6.72,8.57,0,16.32,1.59,23.26,4.77,6.93,3.18,12.71,7.8,17.33,13.87l-16.18,15.6c-6.26-7.89-13.96-11.84-23.11-11.84-5.49,0-10.38,1.25-14.66,3.75-4.29,2.51-7.63,6.04-10.04,10.62-2.41,4.57-3.61,9.8-3.61,15.67s1.2,11.1,3.61,15.67c2.41,4.58,5.75,8.11,10.04,10.62,4.28,2.5,9.17,3.76,14.66,3.76,9.34,0,17.04-4,23.11-11.99l16.18,15.6c-4.62,6.07-10.4,10.71-17.33,13.94-6.93,3.22-14.73,4.84-23.4,4.84-9.92,0-18.88-2.24-26.87-6.72Z"/>
    <path class="cls-1" d="M589.6,151.29c-8.09-4.53-14.42-10.78-19-18.78-4.57-7.99-6.86-16.95-6.86-26.87s2.29-18.87,6.86-26.87c4.57-7.99,10.91-14.25,19-18.78,8.09-4.52,17.19-6.79,27.3-6.79s19.07,2.26,27.16,6.79c8.09,4.53,14.42,10.76,18.99,18.71,4.57,7.94,6.86,16.92,6.86,26.94s-2.29,18.99-6.86,26.94c-4.57,7.94-10.91,14.18-18.99,18.71-8.09,4.53-17.14,6.79-27.16,6.79s-19.21-2.26-27.3-6.79ZM630.99,131.93c4.19-2.5,7.49-6.04,9.89-10.62,2.41-4.57,3.61-9.8,3.61-15.67s-1.21-11.1-3.61-15.67c-2.41-4.57-5.71-8.11-9.89-10.62-4.19-2.5-8.88-3.75-14.08-3.75s-10.04,1.25-14.23,3.75c-4.19,2.51-7.46,6.04-9.82,10.62-2.36,4.57-3.54,9.8-3.54,15.67s1.18,11.1,3.54,15.67c2.36,4.58,5.63,8.11,9.82,10.62,4.19,2.5,8.93,3.76,14.23,3.76s9.89-1.25,14.08-3.76Z"/>
    <path class="cls-1" d="M754.05,61.3c8.04,4.14,14.3,10.04,18.78,17.7,4.48,7.66,6.72,16.54,6.72,26.65s-2.24,18.99-6.72,26.65c-4.48,7.66-10.74,13.55-18.78,17.69-8.04,4.14-17.31,6.21-27.81,6.21h-44.63V55.09h44.63c10.5,0,19.76,2.07,27.81,6.21ZM746.18,126.95c5.29-5.15,7.94-12.25,7.94-21.31s-2.65-16.15-7.94-21.31c-5.3-5.15-12.38-7.73-21.23-7.73h-18.2v58.07h18.2c8.86,0,15.94-2.58,21.23-7.73Z"/>
    <path class="cls-1" d="M867.23,156.2h-75.83V55.09h73.96v21.09h-49.11v18.49h43.48v20.51h-43.48v19.93h50.99v21.09Z"/>
  </g>
</svg>